<svg id="Layer_1" data-name="Layer 1" xmlns="http://www.w3.org/2000/svg" viewBox="0 0 1084.98 85.11"><defs><style>.cls-1{fill:#050505;}</style></defs><path class="cls-1" d="M159.72,74.78c-.3-.76-2.2-.69-2.88-1.25.11.47-.54.55-.47,1C157.75,74.91,157.86,74.52,159.72,74.78Z" transform="translate(0 -12.51)"/><path class="cls-1" d="M153,68.8c.35-.77-1.66-.3-1-1.24C149,67.51,152,69.53,153,68.8Z" transform="translate(0 -12.51)"/><path class="cls-1" d="M354.88,67.06c0,.25-.39.29-.48.5a3.62,3.62,0,0,1,1.44.25v-.75Z" transform="translate(0 -12.51)"/><path class="cls-1" d="M819.05,66.56v-.5h-1v.5Z" transform="translate(0 -12.51)"/><path class="cls-1" d="M367.34,65.57c.92-.06,1.07.28,1.93.24C370,65.12,367.2,65.13,367.34,65.57Z" transform="translate(0 -12.51)"/><path class="cls-1" d="M339.54,64.32c1.31-.4-.7-.84-1-.25C339.06,64.07,339.15,64.27,339.54,64.32Z" transform="translate(0 -12.51)"/><path class="cls-1" d="M819.05,62.82c-.08-.78,2.85,0,4.31-.49.07-2.07-3.78-1.33-5.75-.75C817.38,62.36,818.21,62.6,819.05,62.82Z" transform="translate(0 -12.51)"/><path class="cls-1" d="M1033.87,62.58a2.3,2.3,0,0,1,1-2c-1.62-1-1.3-1.79-.48-3.23-1.47.18-1.41-.43-2.88-.25C1030.43,59.55,1031.07,61.27,1033.87,62.58Z" transform="translate(0 -12.51)"/><path class="cls-1" d="M192.33,62.08c1.09.07,1.8-.06,1.92-.5-.57,0-.53-.4-.48-.75C192.42,60.8,192.38,61.44,192.33,62.08Z" transform="translate(0 -12.51)"/><path class="cls-1" d="M129.51,61.08c0,.77,1.45.74,2.88.75C132.67,60.94,131,61.07,129.51,61.08Z" transform="translate(0 -12.51)"/><path class="cls-1" d="M187.05,60.83a8.49,8.49,0,0,0-2.4-3.23l-.72-.13a2.61,2.61,0,0,0-.72-.62h1c-.77-1.48-.75-1.6,0-3a7.86,7.86,0,0,0-4.31.25,6.26,6.26,0,0,0,3.35,3.24c-2.21.64-6.48.21-7.66-.5-.35,2,1,3.11,1.91,4.48C180.89,62,183.8,61,187.05,60.83Z" transform="translate(0 -12.51)"/><path class="cls-1" d="M330.91,60.09c-.29-.45,1.4-1,0-1.25C330.63,59,329.78,60,330.91,60.09Z" transform="translate(0 -12.51)"/><path class="cls-1" d="M819.05,59.84c0-.66.26-1.47-1-1.5C818.71,59.11,817.71,59.31,819.05,59.84Z" transform="translate(0 -12.51)"/><path class="cls-1" d="M789.79,58.84c-.54-.78.76-.61,1-1-.61-.34-2.35-.38-2.4.25C790.06,57.7,788.65,58.94,789.79,58.84Z" transform="translate(0 -12.51)"/><path class="cls-1" d="M353,58.34c.45-.43,1.5-.55,2.88-.5a5.81,5.81,0,0,1,2.4-3.23c-3.44-.42-4.37.54-7.67.74C350.53,56.78,351.56,57.66,353,58.34Z" transform="translate(0 -12.51)"/><path class="cls-1" d="M128.07,57.84h-1v.5h1Z" transform="translate(0 -12.51)"/><path class="cls-1" d="M96,57.6a3.35,3.35,0,0,0,2.87-1.75c-2.21-.09-2.07-1.41-4.8-1.24C93.42,56.43,96.1,55.67,96,57.6Z" transform="translate(0 -12.51)"/><path class="cls-1" d="M338.58,57.35V56.6h-1c0,.25-.39.29-.48.5C337.75,57.11,337.8,57.41,338.58,57.35Z" transform="translate(0 -12.51)"/><path class="cls-1" d="M318.43,55.6c-.7.4-1,2,1,1.75C319.47,56.56,319.41,55.84,318.43,55.6Z" transform="translate(0 -12.51)"/><path class="cls-1" d="M130,57.35c.92-.86,3.74-.72,3.84-2-2.53.1-5.33.06-6.72.75C129.47,56.35,128,57.1,130,57.35Z" transform="translate(0 -12.51)"/><path class="cls-1" d="M833,57.1c1.46-.84-1.77-.76,0,0Z" transform="translate(0 -12.51)"/><path class="cls-1" d="M782.12,56.1c2,.83,4.06-1.34,1.92-2l-.72.12-.72-.12C781.86,54.47,782.18,55.38,782.12,56.1Z" transform="translate(0 -12.51)"/><path class="cls-1" d="M343.37,56.1c0-.33.84-.23,1-.5C343.78,55,342.07,55.88,343.37,56.1Z" transform="translate(0 -12.51)"/><path class="cls-1" d="M319.87,52.12c-1,.14-1.5,1.85-.47,2.24l.71-.13.25.38c1.52-1.2,2.05-2.92,5.75-3-.7-.22-1.86-.2-1.44-1-2.84.5-5.7-.86-6.24,0A2.46,2.46,0,0,1,319.87,52.12Z" transform="translate(0 -12.51)"/><path class="cls-1" d="M138.14,54.61c-.91.1-2.06.09-1.91.74C137.14,55.25,138.29,55.26,138.14,54.61Z" transform="translate(0 -12.51)"/><path class="cls-1" d="M811.85,55.11c-.35-.77,1.66-.31,1-1.25-.9-.06-1,.28-1.92.25A1.15,1.15,0,0,0,811.85,55.11Z" transform="translate(0 -12.51)"/><path class="cls-1" d="M252.75,55.11c.32-.67-1-.49-1.44-.75C251,55,252.3,54.84,252.75,55.11Z" transform="translate(0 -12.51)"/><path class="cls-1" d="M350.08,54.85c2.9.26,3.64-.6,4.32-1.49a8.06,8.06,0,0,0-5.27,0C348.89,54.15,350.6,53.92,350.08,54.85Z" transform="translate(0 -12.51)"/><path class="cls-1" d="M92.59,53.86c.19-.31.62-.51,1.43-.5-.16-.58-.3-1.17-1.91-1C93,53,91.38,53.39,92.59,53.86Z" transform="translate(0 -12.51)"/><path class="cls-1" d="M888.57,53.36s-1.62-.15-1.43-.25C886,53.71,888.71,53.76,888.57,53.36Z" transform="translate(0 -12.51)"/><path class="cls-1" d="M850.22,52.12c0-1.07-1.77-1.25-3.85-1.25-1,.4-1.1,1.25-1,2.24C847.65,53.49,849.43,53.11,850.22,52.12Z" transform="translate(0 -12.51)"/><path class="cls-1" d="M883.3,52.61c-.9.06-1.06-.28-1.92-.24C881.26,53.09,883.24,53.32,883.3,52.61Z" transform="translate(0 -12.51)"/><path class="cls-1" d="M118,53.11c.83,0,1.23-.19,1.44-.5C118.62,52.6,118.21,52.8,118,53.11Z" transform="translate(0 -12.51)"/><path class="cls-1" d="M347.21,52.12c-1.21.2-4.13-.49-3.84.49C344.4,53.29,346.56,52.46,347.21,52.12Z" transform="translate(0 -12.51)"/><path class="cls-1" d="M279.12,52.86c1.17-1-2.36-2.13-4.32-1.49l.24.37.24.38A17.81,17.81,0,0,0,279.12,52.86Z" transform="translate(0 -12.51)"/><path class="cls-1" d="M272.88,51.87v-.5h1c-.07-1-2.15-.73-3.35-.5C270.42,51.65,271.72,51.73,272.88,51.87Z" transform="translate(0 -12.51)"/><path class="cls-1" d="M746.16,49.62c5.46.65,7.16,3.26,14.87,2.75,0-1-1-1.41-2.4-2-1.83-.77-3.6-.85-5.27-1.49a15.94,15.94,0,0,1-1.44-.75c-.61-.34-.67-.86-1.44-1.24a5.68,5.68,0,0,1-3.84-1c-1.35-.2-1.24.35-2.4.25l-.62.32-.82.18C744,47.62,745.47,48.41,746.16,49.62Z" transform="translate(0 -12.51)"/><path class="cls-1" d="M106.49,51.87v-.5h-1v.5Z" transform="translate(0 -12.51)"/><path class="cls-1" d="M631.56,51.62c0-.15.07-.3.48-.25v-.5C630.86,50.48,630.63,51.72,631.56,51.62Z" transform="translate(0 -12.51)"/><path class="cls-1" d="M862.2,50.87c.27-.52.75-.53,1.44-.25.53-1-2.86-1-2.88-.25C861.71,50.3,861.72,50.71,862.2,50.87Z" transform="translate(0 -12.51)"/><path class="cls-1" d="M352.49,50.62a1,1,0,0,1,.47-1c-1.22,0-1.86.37-1.92,1Z" transform="translate(0 -12.51)"/><path class="cls-1" d="M959.06,49.13c1.43-.77,1.08-2.23-.48-2.74a4.51,4.51,0,0,0-1.91.25v.5h-1C956.89,48.12,959.46,47.87,959.06,49.13Z" transform="translate(0 -12.51)"/><path class="cls-1" d="M673.27,48.13c-.32.67,1,.48,1.45.75C675,48.23,674.52,48,673.27,48.13Z" transform="translate(0 -12.51)"/><path class="cls-1" d="M254.18,47.38c-.08.29-.75.28-1.43.25v1.25C255,49.09,255.79,47.82,254.18,47.38Z" transform="translate(0 -12.51)"/><path class="cls-1" d="M259.94,48.63c.38-1-2.3-1-1.92,0Z" transform="translate(0 -12.51)"/><path class="cls-1" d="M166.43,47.88c-.47-.22-4.15-.69-3.83.25C163.79,48.62,166.06,48.84,166.43,47.88Z" transform="translate(0 -12.51)"/><path class="cls-1" d="M352,47.38c-.16.34-.69.48-.49,1H353C353.09,47.81,352.85,47.44,352,47.38Z" transform="translate(0 -12.51)"/><path class="cls-1" d="M84.92,46.89c-1.41,0-2.71.09-2.4,1C84.32,48.07,84.85,47.6,84.92,46.89Z" transform="translate(0 -12.51)"/><path class="cls-1" d="M890,47.38a1.61,1.61,0,0,0-1-1.49c-.29.93-3.29.45-2.88,1.74C887.56,47.6,889.32,47.77,890,47.38Z" transform="translate(0 -12.51)"/><path class="cls-1" d="M719.79,45.64c-2,0-1.8,1.22-2.4,2C719.22,47.51,719.83,46.74,719.79,45.64Z" transform="translate(0 -12.51)"/><path class="cls-1" d="M238.36,41.91c.92,1,3.2,1.32,3.83,2.48-2,.55-.91,1.49-1.43,2.5,3.93.3,5.56-.6,7.67-1.25.29-1.9-1.58-2.66-2.88-3.73-.22-2-3.31-3.72-6.71-3.24C239,39.33,240.41,41.07,238.36,41.91Z" transform="translate(0 -12.51)"/><path class="cls-1" d="M225.41,46.14c-.06.29-.85.56,0,.75C225.48,46.59,226.27,46.32,225.41,46.14Z" transform="translate(0 -12.51)"/><path class="cls-1" d="M715,45.89c0-.34.23-.55.48-.75H714C714.08,45.53,714,46,715,45.89Z" transform="translate(0 -12.51)"/><path class="cls-1" d="M225.89,44.65c-1.53.21-1.48-.4-2.4-.51C222.93,44.89,225.52,45.22,225.89,44.65Z" transform="translate(0 -12.51)"/><path class="cls-1" d="M723.62,44.39c-.9.06-1-.28-1.91-.25C720.94,44.84,723.78,44.84,723.62,44.39Z" transform="translate(0 -12.51)"/><path class="cls-1" d="M677.11,44.39c.13-.56-.11-.93-1-1C676.26,43.84,675.67,44.65,677.11,44.39Z" transform="translate(0 -12.51)"/><path class="cls-1" d="M313.17,42.65h-1.93c-.87.65.21.75-.47,1.49C312.4,44.08,313.26,43.61,313.17,42.65Z" transform="translate(0 -12.51)"/><path class="cls-1" d="M855.49,43.65h1.44c-.08-.3.08-.71-.48-.75C856.33,43.25,855.66,43.32,855.49,43.65Z" transform="translate(0 -12.51)"/><path class="cls-1" d="M602.79,42.9c1.94.88,1.13-.8,0,0Z" transform="translate(0 -12.51)"/><path class="cls-1" d="M353.92,42.4c.08-.91-1.46-2.54-4.31-1.74C349.81,41.92,351.59,43,353.92,42.4Z" transform="translate(0 -12.51)"/><path class="cls-1" d="M463.25,41.66c.05.3.14.59,1,.49-.08-.29.08-.7-.48-.74C463.7,41.56,463.66,41.7,463.25,41.66Z" transform="translate(0 -12.51)"/><path class="cls-1" d="M777.81,41.66c1.93.87,1.13-.81,0,0Z" transform="translate(0 -12.51)"/><path class="cls-1" d="M519.35,41.91c-.07-.3.09-.71-.48-.75,0,.39-1.22.19-1,.75Z" transform="translate(0 -12.51)"/><path class="cls-1" d="M447.43,41.91a3,3,0,0,0,1.91-.5C448.49,41.46,446.94,41.16,447.43,41.91Z" transform="translate(0 -12.51)"/><path class="cls-1" d="M774,40.66c.12-.67,1.73,1.21,2.4.25C776.57,40.24,772.48,39.77,774,40.66Z" transform="translate(0 -12.51)"/><path class="cls-1" d="M287.27,40.66a1.15,1.15,0,0,0-1-1c-.21.48-1,.63-1,1.25C286.26,41,286.41,40.63,287.27,40.66Z" transform="translate(0 -12.51)"/><path class="cls-1" d="M525.11,40.41c-.4-.7.67-.64.47-1.25h-1.43C524.08,39.78,524.39,40.2,525.11,40.41Z" transform="translate(0 -12.51)"/><path class="cls-1" d="M104.09,39.66c0-.55-2-.1-2.87-.24C100.47,40.27,104.44,40.6,104.09,39.66Z" transform="translate(0 -12.51)"/><path class="cls-1" d="M107.46,38.42l.23-.38.72.13c-1.1-1.59-1.56-3.51-4.79-4-2.35,1.81-10.2-.59-11,1.74a73,73,0,0,1,9.59,2.49A15.6,15.6,0,0,1,107.46,38.42Z" transform="translate(0 -12.51)"/><path class="cls-1" d="M389.41,38.92h-1v.5h1Z" transform="translate(0 -12.51)"/><path class="cls-1" d="M596.56,38.67c2.87,1.41,5.48-.89,3.35-2.24-1.6,0-2,.63-2.88,1C599,37.7,597.35,38.41,596.56,38.67Z" transform="translate(0 -12.51)"/><path class="cls-1" d="M447,38.92c1.35-.21,1.24.35,2.39.24C449.81,38.25,447,38.17,447,38.92Z" transform="translate(0 -12.51)"/><path class="cls-1" d="M312.68,38.92c.05-.81,2.18-.54,1.44-1.74H312.2C312.86,37.93,310.42,38.87,312.68,38.92Z" transform="translate(0 -12.51)"/><path class="cls-1" d="M443.59,35.43v-.5h-2.88c.27.36-.56,1.29.48,1.24,0,.75,0,1.52,1.44,1.5s.55-1.33,0-1.74C442.64,35.23,443.94,36.52,443.59,35.43Z" transform="translate(0 -12.51)"/><path class="cls-1" d="M394.68,37.18v-.75C393.28,36.06,393.28,37.54,394.68,37.18Z" transform="translate(0 -12.51)"/><path class="cls-1" d="M445.51,34.19c-2.42,1,1.67,1.16,0,0Z" transform="translate(0 -12.51)"/><path class="cls-1" d="M852.13,34.43c2.73.4,4,.48,6.24-.24-1.92-.59-2.42-1.91-6.24-1.5C852.36,33.26,853.09,34,852.13,34.43Z" transform="translate(0 -12.51)"/><path class="cls-1" d="M844.46,34.68c.15-.33.69-.47.48-1H843.5C843.61,34.13,843,34.93,844.46,34.68Z" transform="translate(0 -12.51)"/><path class="cls-1" d="M551,34.43c.12-.15-.2-.52-.48-.49S550.28,35.31,551,34.43Z" transform="translate(0 -12.51)"/><path class="cls-1" d="M411,33.19c.32-.67,1.38-.95,1.92-1.5l-.72-.29.25-.45c-1.77-.11-5.31.4-5.76,1.74l.85-.09.59.34C409.57,32.76,409.85,33.19,411,33.19Z" transform="translate(0 -12.51)"/><path class="cls-1" d="M355.84,33.69c-.83,0-1.23.19-1.44.5C355.22,34.2,355.63,34,355.84,33.69Z" transform="translate(0 -12.51)"/><path class="cls-1" d="M552,33.69c.08-.29.76-.28,1.44-.25-.27-.36.56-1.29-.48-1.25C552.34,32.41,550.84,33.41,552,33.69Z" transform="translate(0 -12.51)"/><path class="cls-1" d="M595.11,22.73c-.33,1.81,1.79,3.48.49,5,1.87.94,2,2.78,2.87,4.24,1.51-.13,1.27.66,2.4.74,1.56-1.07.5-2-.48-3,.4-.7,1.89-.85,2.88-1.24-1.28-.25-1.58-1-2.4-1.5.92-.77,2.38-1.25,2.4-2.49-2.9-.79-6.09-4.66-9.59-2.74C595.22,21.51,594.35,22.54,595.11,22.73Z" transform="translate(0 -12.51)"/><path class="cls-1" d="M471.4,31.2c-.13.51-2.12.06-1.92.75,1.4-.07,1.66.46,2.4.74.11-.19.4-.29,1-.25C472.78,31.8,472,31.57,471.4,31.2Z" transform="translate(0 -12.51)"/><path class="cls-1" d="M315.08,32.44c-.2-.47-.17-1.07-1.44-1C313.84,31.92,313.82,32.52,315.08,32.44Z" transform="translate(0 -12.51)"/><path class="cls-1" d="M482.91,30.7v-.5c-.48,0-.57-.2-1-.25C482,30.34,481.89,30.81,482.91,30.7Z" transform="translate(0 -12.51)"/><path class="cls-1" d="M654.58,30.45V29.7C653.18,29.33,653.18,30.81,654.58,30.45Z" transform="translate(0 -12.51)"/><path class="cls-1" d="M365,29.2s-1.62-.15-1.44-.24C362.36,29.55,365.08,29.6,365,29.2Z" transform="translate(0 -12.51)"/><path class="cls-1" d="M425.85,29c.43-.53,1.46-.74,1.44-1.5C425.79,27.28,425,28.75,425.85,29Z" transform="translate(0 -12.51)"/><path class="cls-1" d="M535.66,28.71c1.86.05,3-.27,3.36-1a14.3,14.3,0,0,0-3.36-.5l-.24.38-.72-.13C534.62,28.08,535.45,28.23,535.66,28.71Z" transform="translate(0 -12.51)"/><path class="cls-1" d="M361.11,27c.69.06.81.41,1.44.5C363,27,361.31,26.34,361.11,27Z" transform="translate(0 -12.51)"/><path class="cls-1" d="M318.43,25.72c-1.46.18-1.41-.43-2.87-.25v2h1.92C318,27,318.09,26.28,318.43,25.72Z" transform="translate(0 -12.51)"/><path class="cls-1" d="M426.33,26.46c-1.09-.07-1.8.07-1.92.5A3,3,0,0,0,426.33,26.46Z" transform="translate(0 -12.51)"/><path class="cls-1" d="M424.41,26.46c.5-1.44-2.08-.1,0,0Z" transform="translate(0 -12.51)"/><path class="cls-1" d="M353.44,25.47c.51-1.45-2.07-.11,0,0Z" transform="translate(0 -12.51)"/><path class="cls-1" d="M445.51,24.22c-.91.11-2.89-.34-2.4.5C444.3,24.76,445.44,24.77,445.51,24.22Z" transform="translate(0 -12.51)"/><path class="cls-1" d="M473.32,24.22c.3-.67,2-.62,1.91-1.49-1.35-.21-1.24.35-2.39.25C473.1,23.34,472.28,24.27,473.32,24.22Z" transform="translate(0 -12.51)"/><path class="cls-1" d="M478.6,23.23c1,.22,2.15-.65.95-.75C479.44,22.84,478.76,22.9,478.6,23.23Z" transform="translate(0 -12.51)"/><path class="cls-1" d="M446,20c.06-.29.85-.57,0-.75C445.92,19.54,445.13,19.81,446,20Z" transform="translate(0 -12.51)"/><path class="cls-1" d="M464.21,19.74c1.09.07,1.8-.06,1.92-.5C465,19.17,464.32,19.3,464.21,19.74Z" transform="translate(0 -12.51)"/><path class="cls-1" d="M496.81,19c.69-.79-2.86-.63-2.87-.24C495,19.07,495.36,18.62,496.81,19Z" transform="translate(0 -12.51)"/><path class="cls-1" d="M464.69,18.24c1.63.19.79-.91,1.92-1,1.35-.21,1.24.35,2.39.25a2.45,2.45,0,0,1,1.92-1c1.65,0,3.44-.13,3.84.5,1.79-1,6.76.55,8.15-1A9.6,9.6,0,0,1,480,14c-5.32-.08-7.59-.22-12.94-.25-1.54.29-.77,1.76-2.4,2a3.61,3.61,0,0,0-2.88-1.49c0,1.08-1.48,1.39-1,2.74C464,16.43,463,18,464.69,18.24Z" transform="translate(0 -12.51)"/><path class="cls-1" d="M502.09,18c-.43-.69-1.82-.88-3.36-1C498.21,18.19,500.29,18,502.09,18Z" transform="translate(0 -12.51)"/><path class="cls-1" d="M455.1,12.52c-2.25,0-4.73-.13-4.8,1a15.38,15.38,0,0,0,2.88,1C453.3,13.58,454.29,13.1,455.1,12.52Z" transform="translate(0 -12.51)"/><path class="cls-1" d="M1082.78,48.38c.37,1.44-.7,2.13-.48,3.49.84.12,1.77.26,2.68.43V48.84Z" transform="translate(0 -12.51)"/><path class="cls-1" d="M1075.1,59.59c-.19-.6.88-.54.49-1.25a3.76,3.76,0,0,0-1.44.25l.24.38a9.35,9.35,0,0,0-1-.24l-.64-.14h.48c-.28-.6-1.81-.55-2.88-.75-1.51.58-.73,1.06-1.44,1.75l-.56.37a4.72,4.72,0,0,0-1.6-.5l-.24-.37c.06-.23,1-.93,1-1,.11-.72-.56-.43-1-.74,1.14.89-1.45-.26-1.44-.25-2.28-.64-5.07-.36-5.75-1.25l-.24.38a2.37,2.37,0,0,0-.56-.47c-1-.2-1.8.21-1.84.71l-.24-.37c-3.54-.3-4.63.59-6.23,0l.24.37-.72.13c-1.77,1.23,1.89,1.41,2.4,2.24l.48-.12.48.12h.48l-.24-.56a6.19,6.19,0,0,0,2-.26l.63.32c3.19-.59,5.26.75,5.75,1.75l.72-.13a.84.84,0,0,0,0,1l-.72-.12c-.88.38-1.42,1.68-.48,2.24-1.41-.06-1.47.57-2.88.5-1.06-.36.6-.6-.48-.75-3.63.64-8.6,2.65-10.07-.24-5.16-.2-4.34,2.72-10.55,2-1.3-.49-1.1-1.75-3.35-1.75a3,3,0,0,1-1.92,2c-4.8.2-8.72-1.63-8.63-4.73-2.62-.89-3.06-2.9-6.71-3.24V56.1c-7.07.74-9.11-2.54-14.87-1-.75-.19-.72-.79-1.92-.75-2.52,0-3.16.57-6.71.49-.14.32-.59.47-.49.91l-2.15.09.24-.25c-.63-.25-1.77-.24-2.4-.49-1,1.38-4.19,1.63-6.71,2.24V57.1l-.72.12.24-.37c-2.7-.25-3.2-.9-1.44-1.74-.54-.3-1.36-.46-1-1.25-1.44.07-3.48-.83-3.83-.5.45,1.17-3.2-.65-2.4.75-2.75-.4-4.23-1.45-7.67-1.5-1.14-1.48-4.18-2-6.24-3,.69,1.1-.21,1.57,0,3a13.53,13.53,0,0,1-4.31.5c0-.15-.08-.29-.48-.25l-.24.38-.72-.13c-.16.91-.05,2-1.92,2A3.1,3.1,0,0,1,949,53.86c.15-.34.69-.48.48-1-3.36-1.71-9.4-2.3-10.55-4.48H937c-2.51-2.39-7.15-2.33-11.51-3.49.17,1.13.8,2.15-1,2.74A28.82,28.82,0,0,1,915,45.39c-1.75.43-3.61.27-4.32-.74-2.25.07-2.82,1-5.75.74-.15-.34-.69-.47-.48-1-3.72,0-6.29-1-8.15.5-.78-.28-1.52-1-2.4-.5,0,.84.66,1.32,1.44,1.75.48-.35.79.1,1.44-.5.66,1.07,4,.74,4.79,1.74.7,1.81,5.28,2.62,7.68,2.74.39.71-.68.65-.49,1.25,1.6.17,2.93.47,3.36,1.24-.84,3.94-9.54,1.2-13.9,1.25l.24-.38c-.4.16-.56.46-.48.75l-.24-.37c-2.86.74-6.31,1.83-10.07.75-.72.37-.86,1-1.92,1.24.62-1-2.11-.87-3.84-.5.5-1.62-3-3.83-7.67-2.74v1.5c-3.23.38-3.53-.77-5.75-1.25-.54-.11-1.09.61-1.92.5-1.14-.14-.42-1.16-1.92-.75-.56,1.71-2,2.94-2.87,4.49,1.73.34,3.47.68,3.83,1.74-1.5.3-2.09,1.07-3.83,1.25-.58-.62-3-.3-2.4-1.5-2.39-.05-4.45-.75-7.2,0-1-1.35-2.06-3.19-.48-4.48-2.18-.27-5.28.59-7.67,1-1.35-.55-1.65-1.63-4.79-1.25-2.61,2.21,2.18,3.92,3.83,5.48a8.49,8.49,0,0,1-3.35.5l.24.25-.24.25c-3,1.53-5.73.45-10.07.74-2.28,1.48-3.28,3.61-7.2,4.23l.24.46-.72.29v.25c-.35.4-2.34-.06-1.91.75-.24.86,1.2.87,1.91,1.24-.13.52-1.28.5-1.91.75-2-.68-4.79-3-7.2-1.24-1.11-.76-.15-2.11.48-2.74-4.61-1.2-1.45-3.93-4.31-5.48,1.26.07,1.23-.52,1.43-1a5.48,5.48,0,0,0-1.91-.25l-.24.38a1.86,1.86,0,0,0-1-.38l.24-.25c.41-.79-.76-.77-1-1.24a18,18,0,0,0-4.8.5l.72.29-.24.45c.48,0,.57.2,1,.25-.06.39-1.23.2-1,.75h-1l.25.25-.25.25c1.28.59-.7,1.61-1.43,2,.71.21.69.8,1,1.24-2.2-.69-2,.84-3.84,1a16.57,16.57,0,0,0-4.8-1.49,1.06,1.06,0,0,0,.48-1.25,4.77,4.77,0,0,1-3.35-1.74,21.36,21.36,0,0,0-3.84.5c3.28,3.16-1.63,6.37-6.71,4,1.13-1.34-1.21-1.25-1-2.74a3.84,3.84,0,0,0,1.44-.25l-.24-.25a11.81,11.81,0,0,0,1.44-.12l.24.37c1.3-.4,3-.59,2.87-1.74-3.29-.48-5.71-.85-6.23-2.24a10.55,10.55,0,0,1-5.27-2.49c-4,1.45-7-.72-9.12-1.75.59,1.08.41,1.25-1.44,1.5.78,1.38,1.14,2.79-1,3.73-2.32-.67-2.75.82-5.28.75,1.26,2.2-5.18,2-7.19,3.24-.21-.8-.68-1.22-1.44-.5.34-.92-1.68-.62-2.4-1-4.19,1.51-8.88-1-13.42-.25-1.35-.88-2.29-2-4.8-2.25-2.69.93-1.84,3.7-5.27,4.24-2.34.21-2.23-.84-3.84-1-1.72,1.52-7,1.19-9.11,2.49-.53-.63-2.57-.49-4.31-.5-1.43-1.08-2.09-2.57-4.8-3a1.75,1.75,0,0,1-.48-2.49c.41.36,1.54.36,2.4.49-.23-.78,1.29-.66,1.43-1.24,3.78.07,8.7-1.23,10.55,1.24,4.47.27,7,.14,9.59-1-1.85,0-1.14-1.24-1.91-1.75-4.47.41-8-.71-8.15-3.23.48,0,.57-.21,1-.25,1.36-.21,1.25.35,2.4.25l-.17-.45.65-.3c-.11-.36-.79-.42-1-.75.43-.44,1.34-.63,1-1.49a4.74,4.74,0,0,1-1.44-.5c-2.37-.32-2.35.6-4.31.5-1.06-.2-1.92-.5-1.92-1.25.16-.83,1.82-.88,2.4-1.49-.82-.66-3.68-.26-4.8-.75.7-1,2.58-1.48,2.4-3l-.72.13-.24-.38H705.4a12.13,12.13,0,0,1-4.79-3.48,3.33,3.33,0,0,1,2.4-1c-1.92-1.54,3.29-2.29,1.91-3.49-.09.37-1.16.23-1.91.25-.75-1.36-2.32-2.28-2.88-3.73-2.25-.08-2.37-1.26-4.8-1.25-.62,2.39-2.89,5.06-7.67,4.49,2.27.46-.86.37-.48,1.24,1.87,1.6,3.48,3.34,2.88,6.23-1.92,1.24-5.59,1.57-9.59,1.74.19,1.67-1.83,2.2-1.44,4a5.31,5.31,0,0,1,2.4.75c-1.49,1.86.58,5,2.39,6.72-1.8-.1-2.25.5-3.35.75-.15.75.53,1.94-1,2-3.47-.39-5.47-2.38-3.36-4.24a3,3,0,0,1-1.92-.5c1.35-.43.45-.65.49-1.49-1.74-.24-3.44-.77-2.4-1.75-2-.06-4.25.51-4.32,1.25-3.49-1.32-10.1-.56-8.15,2.24-3.49,3.25-2.91,8.62-10.07,10a9.56,9.56,0,0,0,2.88,3.49c-1.43.34-1.19,1.55-3.36,1.49-2.48-.53-2.73-2.23-4.32-3.23,2.22-.82,1.71-2.55,1-3.74l-.72.12.24-.37a1.5,1.5,0,1,1,0-3c1.64.46,2.31,0,4.32,0,.3-1.58,2-2.47,2.88-3.73-1.21-.56-1.94-1.76-1.44-2.49a6.63,6.63,0,0,0,3.83-1c-1.95-.65-2-2.27-3.36-3.24,2.22-.74,1.24-2,3.36-3-3.81.33-2.89-1.81-6.23-1.74l-.24.38-.72.12c-.37,1.58-.64,3.3-1.44,4.23-1,.16-1.52-.7-1.44.25s2.18.54,1.44,1.75c-4,.33-5.06,2.18-7.67,3.23-.29,2.65,1.43,4.24,1.44,6.73a19.61,19.61,0,0,1-3.84,1,14.46,14.46,0,0,1-5.27-2.25l-.58.34-.24-.42c-.21-.53-.17-1.08-.86-1.54l.72.13c1.9-3.22-3.54-4.55-5.76-7l-.71-.29.24-.45c-2.66-.93-.25-1.61-1-3-.84-1.63-3.65-2.49-5.27-4.23-1.81.19-2.3-.31-3.84-.25-.38,1-1.87.77-1,2a18.26,18.26,0,0,0-2.88-.5c-2.6,1-4,4.72-8.15,3.24.7-2.2-4.88-2.63-1.92-4.48l-.72-.13.24-.37a5.4,5.4,0,0,0-4.32,5.23l.88-.13-1.59,1.08.23-.45c-3.25-.2-5.17.37-6.23-.75.71-.3,2.15-.21,1.92-1-.67-.32-.29-1.17-1-1.49-1.48,0-3.39.73-3.36-.5-.23-.78,2.2-.19,2.4-.75-.59-.29-2.37-1.23-1-1.74,1,0,.61.68,1.92.5l-.17-.44.65-.31c-.11-.36-.79-.42-1-.75.69-.06.81-.41,1.44-.5l-.24-.37.24-.37c.11-.47-.54-.55-.48-1l-.88.13-.56-.37c-3.46,2.29-4.24-2.38-7.67-2.5.48-1-1.43-.75-1-1.74-1.75-.37-3.87.37-5.76-.25-.64.91-2.81,1.5-1.43,2.74-.85.88-2.27,1.06-1.44,2.24-1.8.06-2.32.79-3.84,1-3.6-.8-5.4-1.55-6.23-3.24-.14-.28,1-.21,1-.25.05-.6-1.81-2-1-3a4.76,4.76,0,0,1-1.92-.24c-1.11,1.61-.73,2.46-3.84,3-.18,1.32-.48,2.57-2.87,2.74.6.83,2.95,1.07,1,2-2.42.34-.29-1.67-2.88-1.24-.61,1.39-.95,1.95-4.31,1.49-.66.49-.46,1.43-1,2l.25.24-.25.25h1.45c.39.71-.68.65-.48,1.25,2.91,1,1.72,3.94-1.44,4.48-1.33-.53.88-1.35-1-1.49a4.15,4.15,0,0,1-1.92,1,13.17,13.17,0,0,1-5.27-3.73c-2.1-.41-4.25.24-5.76-.75-1.49-1.52,2.38-2.19,1-3.73,2.23-.47,5.74-2.2,7.67-1.25-.12.85-1.21,1.2-1,2.24a19.28,19.28,0,0,0,4.32-.25c.83-1.28,1.18-2.23,0-3.48,2.4-2.38-3.61-3.9-3.83-6.48-2.43.15-1.24,2.18-4.32,2-2.06-.25-1.2-2-2.4-2.74-4.15.6-5.3,2.44-3.84,4.74,2.09-.61,3.65.15,3.84,1.24-2.59,1.81-3.1,4.7-6.72,6-3.71-1.07-3.63,1.45-5.75,2l.24.25a10.32,10.32,0,0,0-1.92.12l.24-.37a6,6,0,0,1-3.83-4.24c.29,0,.57,0,.48-.24l-.72-.29.24-.46a4,4,0,0,1-3.36-1.49c2.82-2.19-1.74-2.94-1-5.48-1.1-.26-1.54-.86-3.36-.75l.24.37a8.23,8.23,0,0,0-1.43-.5l.71-.12c-5.42-.88-.46-3.65-1.43-5.48-2.59.15-2.06,1.92-4.32,2.24-1.13-.07-.89-.86-2.4-.75a2.48,2.48,0,0,1-2.39.75c1.6,1.05.27,2.41.95,3.74.53,1,3.18,1.92,1.44,3,3.61.74-.78,2.77,2.88,3.49-1.94-.35-1.51.53-2.88.49-2-.45-4.18-1.28-5.27-.49,1.25-.16,1.73.09,1.44.74-2.17,1.35-5,.76-8.63.5,1.45,1.2-1.83.9-1,2.49.77.34,2.47.21,2.87.75-.13.51-2.12.06-1.91.74,3.7,1.11.94,3.74-1.92,4.74.08-1.29-2.82-1-2.88-2.25,2.19-.92,1.55-1,1.92-2.49a4.41,4.41,0,0,1-1.44-.49c.46-1.66-1.9-3.56,2.88-4,.81-1.1-.45-2.56,0-4.23-.37-.06-1,0-1-.25-2.3.24-2.88,2.05-3.36,2.49-1.94.34-1.51-.54-2.87-.5l-.56.37-.88-.12c-1,.89.22,1.33,0,2.49a5.18,5.18,0,0,1-2.88.5c-1.09-.18-1-1-2.4-1-1.46,1.07-2.29,2.47-4.79,3,0,.83,1.56.85,1.44,1.74a19,19,0,0,1-2.88,1.5,17.4,17.4,0,0,0-2.4-.75,10.69,10.69,0,0,1-4.31,1.74c-.15-.5-1.3-.48-1.44-1l-.72-.13-.24-.37c-.69.06-.81.41-1.44.5-1.66-.39-2.38-1.26-4.8-1.25-1.1.09-.45,1.09-1.91,1,.11-2-4.43-1.52-5.28-3,1.52-1.12,1.28-1.82-.48-2.74-.46.51-1.84.54-3.36.5-1.08-1,.09-2,0-3.24l-.72.13,2.4-1.75-.24.38c3.59,0,8.48-2.31,4.8-3.74,0,.9-1.41,1.09-3.36,1,0-.35-.22-.55-.48-.75.13-.77,1-1.12,1.44-1.74l-.72-.13.24-.37a14.93,14.93,0,0,1-3.36.25c.44,1.55-2.36,1.43-4.31,1.74l.24.37-.72.13c.35.68-1,.5-1,1l.72.13c-.9.06-.93.43-1,.8l-.89.69.24-.37c-1.72-.06-1.75.75-3.35.75.22-1.44,0-2.65-2.4-2.74-3.51.55-2,2-2.4,3.24a10,10,0,0,1-1.44,1.49c-1.67,1.25-5.62,2.2-7.19,3.48-1.09-.34-1.86-.85-2.88-1.24v-1l-.62-.32-.34-.43c-.48.28-2.61.94-3.35.26v-.26l-.88.13-.56-.37c-1.32.31-1.35,1.29-3.36,1.25v-1l-.88.13-.56-.37c-3.38.33-1.28,2.32-2.87,3.23l.23.38-.23.37c2.09.57,1.26,2.65.48,4l.71.12a8.48,8.48,0,0,0-1.91.5l.23-.38c-.61,0-.66-.32-1.43-.24l-.24.37-.72-.13c0,.35-.23.55-.48.75-1.17.49-2.9-.34-4.32-.5a4,4,0,0,1,.48-2.73l-.71.12.23-.37a5.47,5.47,0,0,0-2.39-.25c.63,1.16-1.59.83-1,2-2,.73-3,2.38-4.32,2.74-.42.8,1.24.52,1.44,1-1.11-.08-.53.71-1.44.74a4.26,4.26,0,0,1-1.43-.49v-.25l-.89.12-.55-.37c-.69,1.6-6-.16-6.24,1.24,1.37.45,3,.79,4.32,1.25.25,1.26-1,3.67,2.88,4-1.25,1.35-2.08,2.91-6.24,2.74-.56.79.3,1.09-.48,2,1.79.12,2.48,0,3.84.75l.23-.37.24.37c.68-.06.55-.54,1-.75l-.72-.29.23-.45h-.48c.15-.58,1.3-.58,1.45,0l.71.29-.24.45h1c.26,1.64.75,2.35-1.44,3,1.51.05,1.61.82,1.44,1.75-1.87.27-2.46,1.21-4.32,1.49-2.87-.3-1.26-1.59-3.36-2-2.69,1.32-3.18,3.3-1.43,5.48-2.82.19-7.29,1.47-7.68-.5,1.6-.75.55-2.87,1.92-3.74a26.53,26.53,0,0,0-4.32-2.24c.58-.7,1.46-1.24,3.84-1v1.74c1.73-.43,3.53-.82,3.84-2l-.72-.13-.24-.37c-1,0-.61.68-1.92.5-1-1.54-.27-2.38-1.44-3.74.85-.47,1.3-1.15,2.4-1.49,1.47-.18,1.41.43,2.87.24,1.1-.56-.19-2.07,1.45-3.23-.95-.59-3.5-.35-4.81-.75-.14.75-1.48.89-.95,2-1.51-.12-1.88.36-2.88.5.05,1.68-2.25,2.15-1.92,4-3.65,1-6.53,2.41-10.55,3.23,0,.35-.22.55-.47.75,2.64,1.21.63,3.68,2.87,4.73,1.63.1.76-1.1,2.88-.75,1,.47.75.91,2.4.5,1.35-.37-1.22-1,0-1.24a4.42,4.42,0,0,0,1.92,1.24c-1,.15-1.38.62-2.88.5,2,1.65-1.45,2.54.48,3.74-1.82.21-2.31,1.12-4.8,1l.24.46-.72.29c.44.9,1.42.15,2.88.25-2.24.54-2.72,3.16-5.76,2.49-.83,2.62-6.44,1.12-8.63,1-2.79-1.93.37-3.56-.95-6,1-.07.94-.67,1.91-.75a6.75,6.75,0,0,0,4.8-.75c-.29-.43-2.28,0-2.4-.49l-.72-.29.24-.46c-.75,0-.37-.63-1.44-.5-.75.11-.41.78-1.92.5v-.5l-.87.13-.56-.38c-.84.49-2.11,2-3.36,1.5.15-.59,1.66-.47,1.44-1.25a2.87,2.87,0,0,1-1.44-3c-2.28-.38-1.19.2-3.36.25-.23.79,1.47.57,1,1.5-1.45.34-1.71-.12-3.83,0,.12-.81-.57-1.2-1.92-1.25-.11.2-.4.29-1,.25-1.33.37.83,1-.48,1.24-1.93.09-3.51,0-3.84-.74.63-.84,2.63-1,3.36-1.75-.05-.63-1.87-.35-1.92-1,.69-.06.81-.41,1.44-.5,1.09,1.18,4.07,1.37,5.75,2.24,1.12-.76,0-2-.47-2.74-4.43.55-5.24-1.47-9.6-.49v-1c-2-.34-4.28.57-7.67.25-1-3.61-6.3-4.43-4.79-8.22-.71-.29-2.14-.22-1.92-1,.95,0,.61-.68,1.92-.49,1.4-.07,1.47.56,2.88.49a14.89,14.89,0,0,1,.95-3.23c-3.62.19-4.29,1.91-8.15,2,.16,1.24-1.82,1.37-1.43,2.74.29.42,1.44.41,1.91.74a7.57,7.57,0,0,1,.48,3.74c-2.55.72-3.91,3-1.44,4.23-.84,1.14-2.38,1.92-2.39,3.49-4,1.53-3.87,4.2-3.37,7.72-1.48.44-1,1.28-1.44,2,0,0-.92,0-1,0-.95,1.66.55,3.44.48,4.49,0,0-1.44-.4-1,.24.72.38,2.15.38,1.92,1.25-.94-.08-.95.34-1.44.49-.94.08-.95-.33-1.43-.49-3,.46-1.39,3.27-4.8,3.48-1.71-2.91,1.15-4,0-7.22-.62-.5-2.32-.45-1.92-1.49a5.71,5.71,0,0,1,2.4,0c-.29-.89.56-1.2,1-1.75-1.35.21-1.24-.35-2.39-.24a8.25,8.25,0,0,1-5.28,1A4.53,4.53,0,0,0,281.52,72c-1.73-.07-1.31,1-2.88,1,0-.59-.83-.74-.48-1.5,2.28-.12.72-.78,2.87-.75l-.23-.37.23-.37c-.86-1.46-7.5.08-7.66-1.75,1.79,0,1.45-1.07,3.83-.74,0-.66-.27-1.47,1-1.5.54,1-1.45,1.73.48,2,1.14-1.55,3.12-1.08,4.32-2-.28.21-1.42-.16-1.44-.25s2.53-.74,1.91-1.24c.08-.82-2.14-1.1-1-1.75-1.75,0-1.83.88-2.87,1.25-.66-1.35-2.76.4-2.4.5-2.33-1-1.74-2.87.48-3.74-.72-.51-1.53-1.72,0-2-1.47-.49-2.41-1.24-2.4-2.49-4.66-.75-6.34,2.51-11.51,2-1,2.12,4.77,1.3,5.28,1.25,1.29,1.52-1.53,1.59-1.44,2.49-2.08,0-.87-.44-1-1.25-1.54-.28-2.23-1-3.83-1.24-.11.19-.41.29-1,.25.67,1.1.11,1.93-1.43,2.49a4.59,4.59,0,0,0-4.32.74c-.53-.47-.61-1.17-1-1.74.92-.47.87.15,2.4,0-.36-1.14-1.7-1.77-2.88-2.49l-.48.13-.48-.13c-.7,1.77-3.2,1.13-4.79,2.49.35-.85-1.77-.41-1.92-1-.4-.71.68-.65.48-1.25-5.09-1-5.15-5.43-3.35-7.47h-1.93v.5h-.95c-3.06,0-.33,1.54-2.88,1.49-.73-1.69-2.25-3-4.8-3.73a2.5,2.5,0,0,1-2.39.74c0-.25.39-.29.47-.5l-.71-.12.24-.38c-2.38-.42.57-3.61-2.4-3.73-1.91.76-4.12,1.21-2.88,3a17.72,17.72,0,0,0-8.15,4,3,3,0,0,1-1.92-.49c.5-1.42-.6-2-2.4-2.25.62-.42,2.87,0,2.88-.74-2.17-.62-4.56-.68-6.23-1.75s-1.25-2.49-2.4-3.49c-2.78-2.38-8.19-2.8-14.86-4-.14.51-1.3.49-1.44,1,2.48.45,5,.89,5.75,2.24a3.84,3.84,0,0,0,1.44-.25c.63,1.38,4.75,2.11,2.88,4,1,.29,2.61.3,2.87,1-.11,1.34-.84,2.27,0,3.49l.72.12-1.43.13.24-.25c-3-.27-2-1.17-1.44-2.49-3.67-1.42-6.76.69-8.15,2-1.49,0-1.37-.78-3.36-.5l-.48.12-.48-.12c-.19.65-1.43.75-1.44,1.5l.72-.13a2.5,2.5,0,0,0-.32.58l1.28.67-.72-.13v1.5a11.68,11.68,0,0,1,2.88,1c-1.31,1.21,1.41,3.34-1,4.24h5.27l.48.12c0,.22.37.41.72.75l-.72-.13c-4,1.17.11,2.57-2.87,4-2.71.17-7.07-.52-7.68.74l.24.38-.72.12c-.23.79,2.2.19,2.4.75-.07,2.54-3.86,3.15-6.23,4.48a1.46,1.46,0,0,1,0,2.49c-.88-.37-2.69-.26-3.36-.75-.23-1.53.85-2.37.48-4-2.69.32-1.77-1.24-1.92-2.24-.71,0-1.77.09-1.91-.25l-.88.13-.57-.38c-.7,0-.43.6-.47,1l.72-.13c-.64.19-1.29.26-1.92.51l.24-.38c-.07-.62-.09-1.21,1-1.25l-.24-.37-.25-.37c1.35-3.2,1.7-9.71-8.14-8,0-.73-1.83-.55-1.44-1.5-1.54-.22-.66.82-1.92.75a7.3,7.3,0,0,0-3.83-.75c-1.17.5.8,1.07-1,1.25-1-.08-.94-.68-1.91-.75v.25h-.49c-1.31.54.48,1.14-.47,1.74a7.85,7.85,0,0,0,4.31.25c1.84,1.82.33,4.17-3.84,3-1.16.6,1.17.66.49,1.74-3.21-.25-3.55,1-4.8,1.75.63,1.09,2.25.53,4.31.49l.25-.37.71.13v-1a24.1,24.1,0,0,1,4.32-.75c1.07.77,1.39,1.94,1.92,3a5.47,5.47,0,0,0,2.39-.25l-.24-.37.73-.12c-.09-.55.39-.8,1.43-.75v1H165l.23.38-.71.12c.23.78-1.29.66-1.45,1.25-.5.92,1.8.39,1.45,1.24-2.29.59-3.08-.69-5.76,0l-.24.37-.71-.12c.54,1,1.31,1.32.47,2.49,2.05.06,4.1.14,4.32-.75.14.51,1.3.49,1.43,1-.85,1.39-2.61,1.95-3.35,2.74-.41.44.08.7-.48,1-.23.12-.77-.3-1-.25-.57.14-1.45,1.13-1.92,1.24.38-.09-2.94.12-2.39.25-3.39-.81-.56-3.36-.49-4-3-.11-6,1.59-7.67,0,.19-2.63.84-5.21.48-7.71-1.48-.35-1.26.46-2.87-.25l-.24.37-.72-.12c.24,1.91-4.26,3.23-5.28,4.73-.64.93.53.57-1,1.24-.24.11.19.61,0,.75-1.08.79-2.72.6-3.83.75.48,0,.6.43,0,.5-1.2,0-1.17-.56-1.92-.75,1.44.25.85-.56,1-1a5,5,0,0,0-2.4-1c-.54.89-1,1.84-3.35,1.75A29.43,29.43,0,0,1,129,70.29c-2.65-.28-3.46-1.52-6.71-1.49a1.2,1.2,0,0,0,0,1.74c-2.36.55-5.12-.13-5.28-1.49-2.12-.13-2.32,2.06-3.83.75-.61.62.24.78-.48,1-.76-.43-2.2-.51-2.4-1.24.48-.33.45-.93,1.44-1,.07.55,1.21.54,2.39.5,1.41-1.1,1.34-3,4.8-3-.48-1.49-2.59-2.14-4.31-3,1.55-3-.59-5.22-3.84-7.47l-.72-.12-.24-.37c-4,1-.62,3.91.48,5.23-2.93,1-4-.84-6.24-1l-.57.34-.86-.09a1.2,1.2,0,0,1,0,1.74h-1.92c-.39-.87.71-1,.48-1.74l-.24-.37-.24-.38c-.91.11-1.21.54-2.4.5.91.73,0,1.64-1.44,1v.24h-.47v.5c-2,.36-5.25.1-7.2.5,0-.93-.36-2,1.92-1.74V58.59l-.72.13-.24-.38c-1.66.2-1.84-.37-3.36-.25-.92-2.09-7.7-1.14-8.15-3.48-2.28-.4-4.15-1-6.23-1.5.59-.53,3.11-1.36,2.4-1.74-.49.55-2.21-.33-3.84,0-1.17,1.12-2.9,2-2.4,3-2,.14-2.45,1-4.79,1-1.27-1.17,1.65-2.05,3.35-2.49.28-1-.41-1.44-1-2-3.17,0-6.9,1.94-8.16.5-.43-.5-3.32.45-2.87-.5-.39-1.53,1-2.14,1.44-3.24a2.27,2.27,0,0,1-1.44-.74l-10.07.49c-1-1.05-.23-3-.48-4.48-1.29.17-.93-.51-1.44-.75,0-.66-.18-1.42.48-1.74-2.56-.66-1.1-3.41-4.79-3.49,0,1.06.92,1.61,0,2.5,1.5,0,1.64.63,1.91,1.24-1.28,3.11,0,5.44,0,9.46-1.48,1.14-2.26,2.65-3.35,4,.83.22,2.39.08,2.87.5-.41,1.82-4.2.58-7.67,1,.87,1.34-4.42.37-6.23,1,0-.35-.23-.55-.48-.75a24,24,0,0,1-6.72.5c-.44,1.34-2.44,1.89-5.27,2,.86,0,1.12.25,1,.75C13,58.66,9,59.35,9.63,57.6c-.9-.06-1.05.28-1.91.24-.79.39.16,1,.47,1.5-3.22.49-5.79,1.31-6.71,3A4.45,4.45,0,0,0,0,62.7V97.62H1085V64.22a2,2,0,0,0-1.24-.4C1084.12,61.71,1078.34,60.65,1075.1,59.59Z" transform="translate(0 -12.51)"/><path class="cls-1" d="M90.19,57.84l.88-.12.56.37c1.94-.09,2.3-2.54-1-2C91.06,57,90,57.06,90.19,57.84Z" transform="translate(0 -12.51)"/><path class="cls-1" d="M102.18,59.34l.72-.12.72-.13c-.9-.44.57-.73-.48-1.25a7.6,7.6,0,0,0-2.88.25l.24.25.24.25,1.2.13-.24.62Z" transform="translate(0 -12.51)"/><path class="cls-1" d="M130,64.32a22.33,22.33,0,0,0,4.31.25v.25l.73.12-.51.16a2.16,2.16,0,0,0-1.28,1.33,3.9,3.9,0,0,0,3,1,4.12,4.12,0,0,0,.87-1.75l.57.37c.91-1.34,2.43-1.64,5.75-1.24l.24-.37.72.12v-.75a7.32,7.32,0,0,0,2.87-.25c1.95-1.75-4.34-.72-2.87-3-2.39-.32-2,.77-3.84.75-4.08-.8-5.67,1.36-4.8,2.24C133.67,62.88,130.34,62.48,130,64.32Z" transform="translate(0 -12.51)"/><path class="cls-1" d="M157.32,68.8l-.24-.37.73-.13c-.29-.51.58-1.63-.49-1.74l-.24.37-.71-.12C155.43,67.32,154.58,68.94,157.32,68.8Z" transform="translate(0 -12.51)"/><path class="cls-1" d="M159.72,53.11A9.23,9.23,0,0,0,154,50.37c.23,1.45-.78,2.26-3.36,2.24-2.52-.9-2.89-2.92-.48-4h-.48v-.25c-.69-.92,0-1.43-.48-2.74,1.7-.19,3.46-.36,4.32-1-.53-.81-3.81-.19-4.8-.75,1.42-.76,3.51-.13,5.28-1-2.86-.76-6.25-1.24-6.72-3.24-.82.18-3,.92-1.91,1.25,0-.41.59.75.95,1.49-2.41.16-2.36,1.6-3.35,2.49-2.42-.17-2.39.92-4.32,1a14.68,14.68,0,0,1-2.88-.75l-.23.37-.72.13c.15.59.75.93.47,1.74-3-.16-6.79,2.74-1.91,3,1-.74,2.35-1.27,5.27-1a3.41,3.41,0,0,1,.48,2.49,3.77,3.77,0,0,0-2.87,1.24c1.26.3,1.48.22,1,1,.37-.06.95,0,1-.25l.24-.38,1.44.75-.72.13c-.72.21.13.37-.48,1,2.55.1,2.72-1.68,4.8-.5-1.37,1.19.54,1.77.48,3l.88-.12.56.37a17.28,17.28,0,0,0,4.79-4.23c.56.92,1.49.7,3.36.5a1.12,1.12,0,0,0,.95,1l.25-.37.24.37C156.62,54.65,155.19,52.33,159.72,53.11Z" transform="translate(0 -12.51)"/><path class="cls-1" d="M145.34,58.34l-.89.13-.55-.38a3,3,0,0,0-1.92.5c1.25.1,1.44.74,2.88.75C145,59,145.54,58.86,145.34,58.34Z" transform="translate(0 -12.51)"/><path class="cls-1" d="M190.89,47.38c-1.84-.28-3-.93-5.75-.74-.16.34-.69.47-.49,1l.25.38-.73.12c1.51.46,1.21,1.86,2.4,2.49,1.47.18,1.41-.43,2.88-.25l.24-.37.72.12A4,4,0,0,0,190.89,47.38Z" transform="translate(0 -12.51)"/><path class="cls-1" d="M374.06,59.84c-1.24-.52-1.58-1.51-2.4-2.24-.62.5-2.32.45-1.91,1.49l.71.13-.24.37A17.5,17.5,0,0,0,374.06,59.84Z" transform="translate(0 -12.51)"/><path class="cls-1" d="M377.42,60.09c1.53.21,1.48-.4,2.4-.5.08-.55-.4-.8-1.45-.75l-.24.38-.23-.38a2.3,2.3,0,0,0-1.44.75l.72.12Z" transform="translate(0 -12.51)"/><path class="cls-1" d="M379.82,46.14l.71.12.73.13a1.08,1.08,0,0,0,.47-1.25c-1.11-.11-1.28-1.1-2.39-.49C378.78,44.91,379.16,45.79,379.82,46.14Z" transform="translate(0 -12.51)"/><path class="cls-1" d="M397.08,39.91l-.24-.37.24-.38c-.48,0-.57-.2-1-.24-.11-.44.48-1.25-1-1s.55.66.48,1c-2.37.18-2.82,1.36-3.84,2.24l.24.25-.24.25C395.27,42,396.5,41.11,397.08,39.91Z" transform="translate(0 -12.51)"/><path class="cls-1" d="M414.34,33.44c-.86.3-2.79,0-3.36.5.37.05.56.2.48.49l.88-.12.56.37C413.74,34.46,414.57,34.22,414.34,33.44Z" transform="translate(0 -12.51)"/><path class="cls-1" d="M445,30.2c1.45-2.44,8.17.52,9.59-2.24-1.4-.27-1.56-1.19-1.44-2.24.82,0,1.23-.19,1.44-.5-.86,0-1.13-.25-1-.75l-.88.13-.56-.38c-2.13,1.73-3.79,4.43-9.11,3.74l.72.12-.24.38C443.76,29.2,443.86,30,445,30.2Z" transform="translate(0 -12.51)"/><path class="cls-1" d="M452.7,19a12.3,12.3,0,0,0-1.43,1.75c2.89.7-.54,1.93,1,3.24l.88-.13.56.37c1.8,0,1.45-1.07,3.84-.75.49.79,0,1.33,1,2.25h1.92a35.55,35.55,0,0,0,3.83-2.49h2.4c-.2-.6.87-.55.48-1.25-3.12-1.06-6.56,1-8.63-.25l-.56.38L457,22c-1.22.71-1.79-.19,0-.25l.55-.37.89.12a8.24,8.24,0,0,1-1.93-6c-1.92-.43-5.42-.39-6.23.49,1.29.3,0,1.3,0,1.75C450.7,18.37,452,18.53,452.7,19Z" transform="translate(0 -12.51)"/><path class="cls-1" d="M455.82,42.53l.24.37c1.4-.92,2.83.92,3.35-.25-2.05-.19.44-1.2-1-1.74-1.47-.18-1.75.25-2.88.25.34.76-.49.91-.48,1.49Z" transform="translate(0 -12.51)"/><path class="cls-1" d="M468.53,32.94c-.09.7-2.29.31-1.92,1.25s2.34,1.1,3.35,1.74c.16-1.08,2.64-1,4.8-1l-.24-.46.71-.28C474.22,33.54,469.59,34.19,468.53,32.94Z" transform="translate(0 -12.51)"/><path class="cls-1" d="M648.82,42.15c1.36-.2,1.24.35,2.4.25.92-2.55,5.49-1.85,8.62-3l4.08.74c-1.32-.44-2.71-1.67-4.79-.87l.24-.37c-1-1.22-4.15-1.34-5.76-2.24-.57-2.63,3-3.1,4.32-4.73l-.82-.18-.62-.32c-1.56.6-4.4.53-7.19.5-1-.65-1-1.79-3.84-1.5-.27.52-1.19.71-1,1.5.81.41,1.94.65,1.92,1.49-.57,1.61-3.08,2.22-5.27,3l.24.45-.72.3c.4.53,1.24.84,1,1.74,2.93.44,2-1.1,4.79-.75,0,1.72-4.21,1.3-3.83,3.24l.48-.13.48.13c.61-.35,2.08-.25,3.35-.25-.13.56.12.93,1,1l.48.13.48.12Z" transform="translate(0 -12.51)"/><path class="cls-1" d="M636.35,44.39c.88.86.25,1.36-.48,2,1.47-.18,1.75.25,2.88.25.6-1.77,3-2.58,3.36-4.49l-.24-.24.24-.25C638.53,41.7,639.67,44.21,636.35,44.39Z" transform="translate(0 -12.51)"/><path class="cls-1" d="M636.35,34.93c-2.49.18-1.3,2,1,1.75l-.17-.45.65-.3C637.59,35.45,637.62,34.86,636.35,34.93Z" transform="translate(0 -12.51)"/><path class="cls-1" d="M661.29,27.21c-2.77,0-4.1.7-4.8,1.75.43.44,2,.31,1.44,1.24l.88-.12.56.37C660.65,29.7,660.67,28.3,661.29,27.21Z" transform="translate(0 -12.51)"/><path class="cls-1" d="M665.6,45.14c2.51-1.35,7.21-1.57,9.59-3-1.38-1.25-5,.16-6.71-1-.23-.79.68-1,1-1.5l-.82-.17-.62-.33c-2.39-.24-2.85.51-4.32.75l.24.25-.24.25C665.35,41.46,664.75,43.68,665.6,45.14Z" transform="translate(0 -12.51)"/><path class="cls-1" d="M671.84,39.16c.33-1.58,1.88-3.09,1.43-4.48-1.75.09-1.93,1-4.31.75-.76.93,1.27,1.31-.48,2.24,1.26-.07,1.57.34,1.44,1h1v.49C671,39.15,671.83,39.18,671.84,39.16Z" transform="translate(0 -12.51)"/><path class="cls-1" d="M709,42l.24.37c1.1-.42,3.09-.38,4.32-.74-1.2-.55-1.88-1.36-4.32-1.25-.4.54-1.24.85-1,1.74Z" transform="translate(0 -12.51)"/><path class="cls-1" d="M801.78,58.09l-.72-.29.24-.45c-1.18-.22-3.71-.49-4.79,0-.75,1.63,2.56,1.16,2.4,2.49.94.07,1-.34,1.44-.5l-.24-.37.72.12C800.28,58.31,801.58,58.48,801.78,58.09Z" transform="translate(0 -12.51)"/><path class="cls-1" d="M821,63.82c-.09.29-.76.27-1.45.25-.87.35.76,1.21-.47,1.74a5.47,5.47,0,0,0,2.39.25l-.23-.46.71-.29A1.61,1.61,0,0,0,821,63.82Z" transform="translate(0 -12.51)"/><path class="cls-1" d="M840.62,58.59a7.32,7.32,0,0,0-2.87-.25l-.24.38-.72-.13c-.08.87,1.69.78,2.4,1.25v-.25h.48C840.5,59.36,841.51,59,840.62,58.59Z" transform="translate(0 -12.51)"/><path class="cls-1" d="M137.18,59.84c-1.15.1.27-1.14-1.44-.75C135.12,59.84,138.37,60.35,137.18,59.84Z" transform="translate(0 -12.51)"/><path class="cls-1" d="M259.46,52.61c0-.15.07-.29.48-.24a5.48,5.48,0,0,0,1.91.24l.48-.12.49.12v-.24c1.11-.34,2.71-.42,3.83-.75-1.16-.83-2.66-1.35-1-2.49-2.07.17-2.6.75-4.79.25C262.64,50.88,258.86,51.83,259.46,52.61Z" transform="translate(0 -12.51)"/><path class="cls-1" d="M1030.51,54.36a13.8,13.8,0,0,0-1.44,0C1026.66,54.33,1031.15,55,1030.51,54.36Z" transform="translate(0 -12.51)"/><path class="cls-1" d="M881.38,49.62c1.51-.17,2,0,2.4-.24-1,0-.22-.89-.48-1.25a27,27,0,0,1-2.88.5C881.31,48.67,880.72,49.47,881.38,49.62Z" transform="translate(0 -12.51)"/><path class="cls-1" d="M516,37.67c.35-.68-1-.5-1-1C514.55,35.26,514.23,38,516,37.67Z" transform="translate(0 -12.51)"/><path class="cls-1" d="M755.27,34.68c1.69.2,2.08-1.55,1.44-1.74.47,1.21-2.68-.09-2.4.5C755,33.65,755,34.24,755.27,34.68Z" transform="translate(0 -12.51)"/><path class="cls-1" d="M495.37,26.46c-.48,0-1-1.07-1.43-.25C494.63,26.08,495.11,27.18,495.37,26.46Z" transform="translate(0 -12.51)"/><path class="cls-1" d="M342.41,70.29c.35.74.55,1.55,1.44,2h1.92C347.43,71.16,344,69.75,342.41,70.29Z" transform="translate(0 -12.51)"/><path class="cls-1" d="M120.64,64.32l2.4.37A6.58,6.58,0,0,0,120.64,64.32Z" transform="translate(0 -12.51)"/><path class="cls-1" d="M260.66,56.35l-1,.12C260.07,56.44,260.43,56.39,260.66,56.35Z" transform="translate(0 -12.51)"/><path class="cls-1" d="M783.31,52.86a8.67,8.67,0,0,0-2.39-1l2.4,2.36C783.32,53.78,783.34,53.32,783.31,52.86Z" transform="translate(0 -12.51)"/><path class="cls-1" d="M88,56,90,55.73A6.2,6.2,0,0,0,88,56Z" transform="translate(0 -12.51)"/><path class="cls-1" d="M327.55,54a1.84,1.84,0,0,0,.72.38Z" transform="translate(0 -12.51)"/><path class="cls-1" d="M272.88,51.37a9,9,0,0,0,2.16.37Z" transform="translate(0 -12.51)"/><path class="cls-1" d="M742.57,46l1,.45C743.33,46.32,743,46.21,742.57,46Z" transform="translate(0 -12.51)"/><path class="cls-1" d="M956.67,47.14a4.37,4.37,0,0,0-1-.25Z" transform="translate(0 -12.51)"/><path class="cls-1" d="M885.94,48.38l-2.64-1C884.12,47.81,884.54,48.49,885.94,48.38Z" transform="translate(0 -12.51)"/><path class="cls-1" d="M891.05,45.6a7.61,7.61,0,0,0,2.08.54Z" transform="translate(0 -12.51)"/><path class="cls-1" d="M351.29,45.27a1.91,1.91,0,0,0,.47-.75Z" transform="translate(0 -12.51)"/><path class="cls-1" d="M251.54,45.14h1C252.28,45.12,251.92,45.15,251.54,45.14Z" transform="translate(0 -12.51)"/><path class="cls-1" d="M117.27,44l1.45-.23A7.44,7.44,0,0,0,117.27,44Z" transform="translate(0 -12.51)"/><path class="cls-1" d="M122.08,43.77a23.43,23.43,0,0,0,3.83-.5Z" transform="translate(0 -12.51)"/><path class="cls-1" d="M320.11,39.29a18.38,18.38,0,0,0,2.41-.75Z" transform="translate(0 -12.51)"/><path class="cls-1" d="M107.69,38c.24.46.19.78.48,1Z" transform="translate(0 -12.51)"/><path class="cls-1" d="M353.68,37.8l-2.39.12A4.7,4.7,0,0,0,353.68,37.8Z" transform="translate(0 -12.51)"/><path class="cls-1" d="M416.82,29l-4.64,2.4A8.71,8.71,0,0,0,416.82,29Z" transform="translate(0 -12.51)"/><path class="cls-1" d="M407.52,32.6l-1.19.91A8.23,8.23,0,0,0,407.52,32.6Z" transform="translate(0 -12.51)"/><path class="cls-1" d="M634.2,31.07l1-1.24C634.76,30.22,634.12,30.57,634.2,31.07Z" transform="translate(0 -12.51)"/><path class="cls-1" d="M531.1,26.21,535,27.45C533.76,27,533,25.73,531.1,26.21Z" transform="translate(0 -12.51)"/><path class="cls-1" d="M411.46,25.59,410,26.84C410.61,26.47,411.47,26.13,411.46,25.59Z" transform="translate(0 -12.51)"/><path class="cls-1" d="M425.85,24l.72.87C426.56,24.49,426.38,24.21,425.85,24Z" transform="translate(0 -12.51)"/><path class="cls-1" d="M436.71,22.93l5.2.05A8.77,8.77,0,0,0,436.71,22.93Z" transform="translate(0 -12.51)"/><path class="cls-1" d="M488.42,17.87a7,7,0,0,0,1.46.15Z" transform="translate(0 -12.51)"/><path class="cls-1" d="M96.9,60.58l-.55-.78C96.17,60,96.61,60.37,96.9,60.58Z" transform="translate(0 -12.51)"/><path class="cls-1" d="M109.61,54.23l.48,1.25C110.53,55.05,110.27,54.55,109.61,54.23Z" transform="translate(0 -12.51)"/><path class="cls-1" d="M137.79,67.81a5.69,5.69,0,0,0-1.56-.37l-.24,2C137.46,69.57,138.43,68.44,137.79,67.81Z" transform="translate(0 -12.51)"/><path class="cls-1" d="M157.08,66.93l-2.39-2A6,6,0,0,0,157.08,66.93Z" transform="translate(0 -12.51)"/><path class="cls-1" d="M135.51,45.51a2.79,2.79,0,0,0-1.12-.34Z" transform="translate(0 -12.51)"/><path class="cls-1" d="M134.39,45.17l-1.28-.4A2.76,2.76,0,0,0,134.39,45.17Z" transform="translate(0 -12.51)"/><path class="cls-1" d="M149.65,48.63a22.39,22.39,0,0,0,3.37-.35Z" transform="translate(0 -12.51)"/><path class="cls-1" d="M154.93,56.35,154.69,55C154.78,55.43,154.45,55.94,154.93,56.35Z" transform="translate(0 -12.51)"/><path class="cls-1" d="M186.81,65.69l-1.44-.25A8.82,8.82,0,0,0,186.81,65.69Z" transform="translate(0 -12.51)"/><path class="cls-1" d="M185.86,52.74l3-.17A8.08,8.08,0,0,0,185.86,52.74Z" transform="translate(0 -12.51)"/><path class="cls-1" d="M184.9,48a3.69,3.69,0,0,0-1.16-.12Z" transform="translate(0 -12.51)"/><path class="cls-1" d="M183.74,47.89l-1.25-.13A3.88,3.88,0,0,0,183.74,47.89Z" transform="translate(0 -12.51)"/><path class="cls-1" d="M189.69,50l.72.74C190.31,50.46,190.16,50.31,189.69,50Z" transform="translate(0 -12.51)"/><path class="cls-1" d="M254.18,57.72V59C254.22,58.53,254.73,58.14,254.18,57.72Z" transform="translate(0 -12.51)"/><path class="cls-1" d="M345.53,66.19l-1.44,1.08A2.62,2.62,0,0,0,345.53,66.19Z" transform="translate(0 -12.51)"/><path class="cls-1" d="M369,59.71l1.43-.49A7.54,7.54,0,0,0,369,59.71Z" transform="translate(0 -12.51)"/><path class="cls-1" d="M401.47,36.3l.64-.61C401.81,35.87,401.54,36.06,401.47,36.3Z" transform="translate(0 -12.51)"/><path class="cls-1" d="M403.31,34.56l-1.2,1.13C402.71,35.36,403.46,35.07,403.31,34.56Z" transform="translate(0 -12.51)"/><path class="cls-1" d="M412.34,34.31l-1.5,2.29A2.6,2.6,0,0,0,412.34,34.31Z" transform="translate(0 -12.51)"/><path class="cls-1" d="M431.64,30.57h-1.23A3.18,3.18,0,0,0,431.64,30.57Z" transform="translate(0 -12.51)"/><path class="cls-1" d="M431.64,30.57h2.12A4.23,4.23,0,0,0,431.64,30.57Z" transform="translate(0 -12.51)"/><path class="cls-1" d="M441,28.58l2.88-.5A13.86,13.86,0,0,0,441,28.58Z" transform="translate(0 -12.51)"/><path class="cls-1" d="M455.34,43.77a2.28,2.28,0,0,0,.31-.8Z" transform="translate(0 -12.51)"/><path class="cls-1" d="M474.52,34.47l2.08,1.33A4,4,0,0,0,474.52,34.47Z" transform="translate(0 -12.51)"/><path class="cls-1" d="M514.32,38.63l1.2,0A6.51,6.51,0,0,0,514.32,38.63Z" transform="translate(0 -12.51)"/><path class="cls-1" d="M545.49,42.15a8.09,8.09,0,0,0-2.4.88Z" transform="translate(0 -12.51)"/><path class="cls-1" d="M590.08,38.79,592,39A3.36,3.36,0,0,0,590.08,38.79Z" transform="translate(0 -12.51)"/><path class="cls-1" d="M593.92,39.29,592,39A3,3,0,0,0,593.92,39.29Z" transform="translate(0 -12.51)"/><path class="cls-1" d="M591.28,40.91l-2.09-.19A6.53,6.53,0,0,0,591.28,40.91Z" transform="translate(0 -12.51)"/><path class="cls-1" d="M599.19,41.53l2.4-.5A17,17,0,0,0,599.19,41.53Z" transform="translate(0 -12.51)"/><path class="cls-1" d="M625,49.26a8.51,8.51,0,0,0,1.52-.09Z" transform="translate(0 -12.51)"/><path class="cls-1" d="M623.65,49.33l1.35-.07A8.6,8.6,0,0,0,623.65,49.33Z" transform="translate(0 -12.51)"/><path class="cls-1" d="M643.07,41.28l-1.2.63A4.12,4.12,0,0,0,643.07,41.28Z" transform="translate(0 -12.51)"/><path class="cls-1" d="M641.39,36.88l-4.25-.65A13.72,13.72,0,0,0,641.39,36.88Z" transform="translate(0 -12.51)"/><path class="cls-1" d="M658.81,30.08l-1.7,1.69C657.86,31.26,658.64,30.73,658.81,30.08Z" transform="translate(0 -12.51)"/><path class="cls-1" d="M668.62,39.49a19.29,19.29,0,0,0,2.26-.82Z" transform="translate(0 -12.51)"/><path class="cls-1" d="M648.58,43l-.24-.75A1.47,1.47,0,0,0,648.58,43Z" transform="translate(0 -12.51)"/><path class="cls-1" d="M645.22,61.2l1-.25A4.2,4.2,0,0,0,645.22,61.2Z" transform="translate(0 -12.51)"/><path class="cls-1" d="M707.56,42.78l.93-.48A2.51,2.51,0,0,0,707.56,42.78Z" transform="translate(0 -12.51)"/><path class="cls-1" d="M715.3,51.67l1.13.32A10.82,10.82,0,0,0,715.3,51.67Z" transform="translate(0 -12.51)"/><path class="cls-1" d="M801.55,59.34,800.11,59A6.3,6.3,0,0,0,801.55,59.34Z" transform="translate(0 -12.51)"/><path class="cls-1" d="M839.91,60.09l-.72-.5C839.44,59.77,839.59,60,839.91,60.09Z" transform="translate(0 -12.51)"/><path class="cls-1" d="M835.66,57.4l1.85,1.32A4.19,4.19,0,0,0,835.66,57.4Z" transform="translate(0 -12.51)"/><path class="cls-1" d="M981.36,56.72l-.48.5A1.32,1.32,0,0,0,981.36,56.72Z" transform="translate(0 -12.51)"/><path class="cls-1" d="M1052.57,58.72l-.08.57A2,2,0,0,0,1052.57,58.72Z" transform="translate(0 -12.51)"/><path class="cls-1" d="M1050.41,56.47a10,10,0,0,0-1.44-.12Z" transform="translate(0 -12.51)"/><path class="cls-1" d="M174.75,65.6a7.58,7.58,0,0,0-1.36-.16l1.59.5Z" transform="translate(0 -12.51)"/><path class="cls-1" d="M395.88,44.27l-.48-1A2.26,2.26,0,0,0,395.88,44.27Z" transform="translate(0 -12.51)"/><path class="cls-1" d="M390.13,41.78l1.91-.37A8.9,8.9,0,0,0,390.13,41.78Z" transform="translate(0 -12.51)"/><path class="cls-1" d="M347.45,72.16l-2.4,1c.47,0,.95,0,1.4-.08A2.26,2.26,0,0,0,347.45,72.16Z" transform="translate(0 -12.51)"/><path class="cls-1" d="M263.18,53.48c.56-.5-1.06-.54-.85-1l-.95,2.12C261.64,54.07,262.29,53.76,263.18,53.48Z" transform="translate(0 -12.51)"/><path class="cls-1" d="M605.42,29.33l-.47-.25A.66.66,0,0,0,605.42,29.33Z" transform="translate(0 -12.51)"/></svg>